<mxfile host="app.diagrams.net" modified="2022-05-04T14:03:38.809Z" agent="5.0 (Windows NT 10.0; Win64; x64) AppleWebKit/537.36 (KHTML, like Gecko) Chrome/100.0.4896.127 Safari/537.36" etag="cs4Ek_nnfCmnsd51bOlu" version="17.5.1" type="github">
  <diagram id="yWTKAKAvEaxL5TAW06oX" name="Page-1">
    <mxGraphModel dx="862" dy="482" grid="1" gridSize="10" guides="1" tooltips="1" connect="1" arrows="1" fold="1" page="1" pageScale="1" pageWidth="850" pageHeight="1100" math="0" shadow="0">
      <root>
        <mxCell id="0" />
        <mxCell id="1" parent="0" />
        <mxCell id="qwXO7kdG3Nv8Nacqzg9t-1" value="" style="swimlane;startSize=0;" vertex="1" parent="1">
          <mxGeometry x="235" y="40" width="380" height="430" as="geometry" />
        </mxCell>
        <mxCell id="qwXO7kdG3Nv8Nacqzg9t-4" value="Fazer&lt;br&gt;Login" style="ellipse;whiteSpace=wrap;html=1;" vertex="1" parent="qwXO7kdG3Nv8Nacqzg9t-1">
          <mxGeometry x="60" y="70" width="80" height="50" as="geometry" />
        </mxCell>
        <mxCell id="qwXO7kdG3Nv8Nacqzg9t-6" value="Verificar&amp;nbsp;&lt;br&gt;Senha" style="ellipse;whiteSpace=wrap;html=1;" vertex="1" parent="qwXO7kdG3Nv8Nacqzg9t-1">
          <mxGeometry x="250" y="40" width="70" height="50" as="geometry" />
        </mxCell>
        <mxCell id="qwXO7kdG3Nv8Nacqzg9t-7" value="Exibir&lt;br&gt;Erro de Login" style="ellipse;whiteSpace=wrap;html=1;" vertex="1" parent="qwXO7kdG3Nv8Nacqzg9t-1">
          <mxGeometry x="250" y="110" width="70" height="40" as="geometry" />
        </mxCell>
        <mxCell id="qwXO7kdG3Nv8Nacqzg9t-8" value="Aplicativo Ifood" style="text;html=1;strokeColor=none;fillColor=none;align=center;verticalAlign=middle;whiteSpace=wrap;rounded=0;" vertex="1" parent="qwXO7kdG3Nv8Nacqzg9t-1">
          <mxGeometry x="145" width="90" height="30" as="geometry" />
        </mxCell>
        <mxCell id="qwXO7kdG3Nv8Nacqzg9t-9" value="Fazer&lt;br&gt;Pedido" style="ellipse;whiteSpace=wrap;html=1;" vertex="1" parent="qwXO7kdG3Nv8Nacqzg9t-1">
          <mxGeometry x="60" y="170" width="80" height="50" as="geometry" />
        </mxCell>
        <mxCell id="qwXO7kdG3Nv8Nacqzg9t-10" value="Consultar&lt;br&gt;Entrega" style="ellipse;whiteSpace=wrap;html=1;" vertex="1" parent="qwXO7kdG3Nv8Nacqzg9t-1">
          <mxGeometry x="20" y="250" width="80" height="50" as="geometry" />
        </mxCell>
        <mxCell id="qwXO7kdG3Nv8Nacqzg9t-33" value="" style="edgeStyle=orthogonalEdgeStyle;rounded=0;orthogonalLoop=1;jettySize=auto;html=1;startArrow=none;startFill=0;" edge="1" parent="qwXO7kdG3Nv8Nacqzg9t-1" source="qwXO7kdG3Nv8Nacqzg9t-11" target="qwXO7kdG3Nv8Nacqzg9t-9">
          <mxGeometry relative="1" as="geometry" />
        </mxCell>
        <mxCell id="qwXO7kdG3Nv8Nacqzg9t-11" value="Consultar&amp;nbsp;&lt;br&gt;Valor Total" style="ellipse;whiteSpace=wrap;html=1;" vertex="1" parent="qwXO7kdG3Nv8Nacqzg9t-1">
          <mxGeometry x="115" y="250" width="75" height="50" as="geometry" />
        </mxCell>
        <mxCell id="qwXO7kdG3Nv8Nacqzg9t-12" value="Pagamento" style="ellipse;whiteSpace=wrap;html=1;" vertex="1" parent="qwXO7kdG3Nv8Nacqzg9t-1">
          <mxGeometry x="240" y="190" width="90" height="50" as="geometry" />
        </mxCell>
        <mxCell id="qwXO7kdG3Nv8Nacqzg9t-13" value="Pagar com&lt;br&gt;cartão" style="ellipse;whiteSpace=wrap;html=1;" vertex="1" parent="qwXO7kdG3Nv8Nacqzg9t-1">
          <mxGeometry x="215" y="250" width="70" height="50" as="geometry" />
        </mxCell>
        <mxCell id="qwXO7kdG3Nv8Nacqzg9t-14" value="Pagar em&lt;br&gt;dinheiro" style="ellipse;whiteSpace=wrap;html=1;" vertex="1" parent="qwXO7kdG3Nv8Nacqzg9t-1">
          <mxGeometry x="295" y="250" width="70" height="50" as="geometry" />
        </mxCell>
        <mxCell id="qwXO7kdG3Nv8Nacqzg9t-15" value="Consultar&lt;br&gt;andamento do&lt;br&gt;pedido" style="ellipse;whiteSpace=wrap;html=1;" vertex="1" parent="qwXO7kdG3Nv8Nacqzg9t-1">
          <mxGeometry x="155" y="340" width="80" height="60" as="geometry" />
        </mxCell>
        <mxCell id="qwXO7kdG3Nv8Nacqzg9t-25" value="&amp;lt;&amp;lt;inclui&amp;gt;&amp;gt;" style="endArrow=classic;html=1;rounded=0;dashed=1;entryX=0;entryY=0.5;entryDx=0;entryDy=0;exitX=1;exitY=0.5;exitDx=0;exitDy=0;" edge="1" parent="qwXO7kdG3Nv8Nacqzg9t-1" source="qwXO7kdG3Nv8Nacqzg9t-4" target="qwXO7kdG3Nv8Nacqzg9t-6">
          <mxGeometry relative="1" as="geometry">
            <mxPoint x="135" y="190" as="sourcePoint" />
            <mxPoint x="235" y="190" as="targetPoint" />
            <Array as="points" />
          </mxGeometry>
        </mxCell>
        <mxCell id="qwXO7kdG3Nv8Nacqzg9t-26" value="i" style="edgeLabel;resizable=0;html=1;align=center;verticalAlign=middle;" connectable="0" vertex="1" parent="qwXO7kdG3Nv8Nacqzg9t-25">
          <mxGeometry relative="1" as="geometry" />
        </mxCell>
        <mxCell id="qwXO7kdG3Nv8Nacqzg9t-27" value="" style="endArrow=classic;html=1;rounded=0;dashed=1;entryX=1;entryY=1;entryDx=0;entryDy=0;exitX=0;exitY=0.5;exitDx=0;exitDy=0;" edge="1" parent="qwXO7kdG3Nv8Nacqzg9t-1" source="qwXO7kdG3Nv8Nacqzg9t-7" target="qwXO7kdG3Nv8Nacqzg9t-4">
          <mxGeometry relative="1" as="geometry">
            <mxPoint x="135" y="190" as="sourcePoint" />
            <mxPoint x="235" y="190" as="targetPoint" />
          </mxGeometry>
        </mxCell>
        <mxCell id="qwXO7kdG3Nv8Nacqzg9t-28" value="&amp;lt;&amp;lt;estende&amp;gt;&amp;gt;" style="edgeLabel;resizable=0;html=1;align=center;verticalAlign=middle;" connectable="0" vertex="1" parent="qwXO7kdG3Nv8Nacqzg9t-27">
          <mxGeometry relative="1" as="geometry" />
        </mxCell>
        <mxCell id="qwXO7kdG3Nv8Nacqzg9t-31" value="" style="endArrow=classic;html=1;rounded=0;exitX=0.5;exitY=0;exitDx=0;exitDy=0;entryX=0.5;entryY=1;entryDx=0;entryDy=0;" edge="1" parent="qwXO7kdG3Nv8Nacqzg9t-1" source="qwXO7kdG3Nv8Nacqzg9t-10" target="qwXO7kdG3Nv8Nacqzg9t-9">
          <mxGeometry width="50" height="50" relative="1" as="geometry">
            <mxPoint x="165" y="220" as="sourcePoint" />
            <mxPoint x="215" y="170" as="targetPoint" />
          </mxGeometry>
        </mxCell>
        <mxCell id="qwXO7kdG3Nv8Nacqzg9t-34" value="" style="endArrow=classic;html=1;rounded=0;entryX=0.988;entryY=0.66;entryDx=0;entryDy=0;entryPerimeter=0;exitX=0;exitY=0.5;exitDx=0;exitDy=0;dashed=1;" edge="1" parent="qwXO7kdG3Nv8Nacqzg9t-1" source="qwXO7kdG3Nv8Nacqzg9t-12" target="qwXO7kdG3Nv8Nacqzg9t-9">
          <mxGeometry relative="1" as="geometry">
            <mxPoint x="135" y="190" as="sourcePoint" />
            <mxPoint x="235" y="190" as="targetPoint" />
          </mxGeometry>
        </mxCell>
        <mxCell id="qwXO7kdG3Nv8Nacqzg9t-35" value="&amp;lt;&amp;lt;inclui&amp;gt;&amp;gt;" style="edgeLabel;resizable=0;html=1;align=center;verticalAlign=middle;" connectable="0" vertex="1" parent="qwXO7kdG3Nv8Nacqzg9t-34">
          <mxGeometry relative="1" as="geometry" />
        </mxCell>
        <mxCell id="qwXO7kdG3Nv8Nacqzg9t-36" value="" style="endArrow=classic;html=1;rounded=0;exitX=0.5;exitY=0;exitDx=0;exitDy=0;" edge="1" parent="qwXO7kdG3Nv8Nacqzg9t-1" source="qwXO7kdG3Nv8Nacqzg9t-13">
          <mxGeometry width="50" height="50" relative="1" as="geometry">
            <mxPoint x="165" y="220" as="sourcePoint" />
            <mxPoint x="285" y="240" as="targetPoint" />
          </mxGeometry>
        </mxCell>
        <mxCell id="qwXO7kdG3Nv8Nacqzg9t-2" value="Usuário" style="shape=umlActor;verticalLabelPosition=bottom;verticalAlign=top;html=1;outlineConnect=0;" vertex="1" parent="1">
          <mxGeometry x="60" y="170" width="40" height="110" as="geometry" />
        </mxCell>
        <mxCell id="qwXO7kdG3Nv8Nacqzg9t-3" value="Lancheria" style="shape=umlActor;verticalLabelPosition=bottom;verticalAlign=top;html=1;outlineConnect=0;" vertex="1" parent="1">
          <mxGeometry x="700" y="170" width="40" height="110" as="geometry" />
        </mxCell>
        <mxCell id="qwXO7kdG3Nv8Nacqzg9t-17" value="" style="endArrow=none;html=1;rounded=0;entryX=0.05;entryY=0.68;entryDx=0;entryDy=0;entryPerimeter=0;" edge="1" parent="1" source="qwXO7kdG3Nv8Nacqzg9t-2" target="qwXO7kdG3Nv8Nacqzg9t-4">
          <mxGeometry width="50" height="50" relative="1" as="geometry">
            <mxPoint x="110" y="210" as="sourcePoint" />
            <mxPoint x="130" y="210" as="targetPoint" />
            <Array as="points">
              <mxPoint x="120" y="200" />
              <mxPoint x="100" y="210" />
            </Array>
          </mxGeometry>
        </mxCell>
        <mxCell id="qwXO7kdG3Nv8Nacqzg9t-30" value="" style="endArrow=none;html=1;rounded=0;entryX=1;entryY=0.3333333333333333;entryDx=0;entryDy=0;entryPerimeter=0;exitX=0;exitY=0.5;exitDx=0;exitDy=0;" edge="1" parent="1" source="qwXO7kdG3Nv8Nacqzg9t-9" target="qwXO7kdG3Nv8Nacqzg9t-2">
          <mxGeometry width="50" height="50" relative="1" as="geometry">
            <mxPoint x="400" y="260" as="sourcePoint" />
            <mxPoint x="450" y="210" as="targetPoint" />
          </mxGeometry>
        </mxCell>
        <mxCell id="qwXO7kdG3Nv8Nacqzg9t-37" value="" style="endArrow=classic;html=1;rounded=0;exitX=0;exitY=0;exitDx=0;exitDy=0;" edge="1" parent="1" source="qwXO7kdG3Nv8Nacqzg9t-14">
          <mxGeometry width="50" height="50" relative="1" as="geometry">
            <mxPoint x="495" y="300" as="sourcePoint" />
            <mxPoint x="520" y="280" as="targetPoint" />
          </mxGeometry>
        </mxCell>
        <mxCell id="qwXO7kdG3Nv8Nacqzg9t-38" value="" style="endArrow=none;html=1;rounded=0;entryX=1;entryY=0.3333333333333333;entryDx=0;entryDy=0;entryPerimeter=0;exitX=0;exitY=0.5;exitDx=0;exitDy=0;" edge="1" parent="1" source="qwXO7kdG3Nv8Nacqzg9t-15" target="qwXO7kdG3Nv8Nacqzg9t-2">
          <mxGeometry width="50" height="50" relative="1" as="geometry">
            <mxPoint x="400" y="260" as="sourcePoint" />
            <mxPoint x="450" y="210" as="targetPoint" />
          </mxGeometry>
        </mxCell>
        <mxCell id="qwXO7kdG3Nv8Nacqzg9t-39" value="" style="endArrow=none;html=1;rounded=0;entryX=0;entryY=0.3333333333333333;entryDx=0;entryDy=0;entryPerimeter=0;exitX=1;exitY=0.5;exitDx=0;exitDy=0;" edge="1" parent="1" source="qwXO7kdG3Nv8Nacqzg9t-15" target="qwXO7kdG3Nv8Nacqzg9t-3">
          <mxGeometry width="50" height="50" relative="1" as="geometry">
            <mxPoint x="400" y="260" as="sourcePoint" />
            <mxPoint x="450" y="210" as="targetPoint" />
            <Array as="points">
              <mxPoint x="640" y="350" />
            </Array>
          </mxGeometry>
        </mxCell>
        <mxCell id="qwXO7kdG3Nv8Nacqzg9t-40" value="" style="endArrow=none;html=1;rounded=0;entryX=0;entryY=0.3333333333333333;entryDx=0;entryDy=0;entryPerimeter=0;exitX=0.938;exitY=0.3;exitDx=0;exitDy=0;exitPerimeter=0;" edge="1" parent="1" source="qwXO7kdG3Nv8Nacqzg9t-9" target="qwXO7kdG3Nv8Nacqzg9t-3">
          <mxGeometry width="50" height="50" relative="1" as="geometry">
            <mxPoint x="400" y="260" as="sourcePoint" />
            <mxPoint x="450" y="210" as="targetPoint" />
          </mxGeometry>
        </mxCell>
        <mxCell id="qwXO7kdG3Nv8Nacqzg9t-41" value="" style="endArrow=none;html=1;rounded=0;entryX=0;entryY=0.3333333333333333;entryDx=0;entryDy=0;entryPerimeter=0;exitX=1;exitY=0.5;exitDx=0;exitDy=0;" edge="1" parent="1" source="qwXO7kdG3Nv8Nacqzg9t-12" target="qwXO7kdG3Nv8Nacqzg9t-3">
          <mxGeometry width="50" height="50" relative="1" as="geometry">
            <mxPoint x="400" y="260" as="sourcePoint" />
            <mxPoint x="450" y="210" as="targetPoint" />
          </mxGeometry>
        </mxCell>
      </root>
    </mxGraphModel>
  </diagram>
</mxfile>
